<svg width="414" height="106" viewBox="0 0 414 106" fill="none" xmlns="http://www.w3.org/2000/svg">
<path d="M156.7 27.8L128.9 55.7L129.2 66.6L129.5 77.5L157 78L184.5 78.5L185 92L185.5 105.5H199H212.5L212.8 82.5C212.9 69.8 212.8 58.5 212.5 57.2L212 55H185.3H158.6L184.8 28.6C199.2 14.1 211 1.7 211 1.1C211 0.399998 206.7 -1.57207e-06 197.7 -1.57207e-06H184.5L156.7 27.8Z" fill="white"/>
<path d="M224.7 0.699999C223.7 1.6 223.8 27 224.8 27C225.2 27 231.1 21.4 238 14.5C244.9 7.6 250.8 2 251.2 2C251.7 2 252 7.7 252 14.7V27.4L238 41.6L223.9 55.7L224.2 69.1L224.5 82.5L252.3 82.8L280 83V70C280 62.9 279.7 57 279.2 57C278.8 57 272.9 62.6 266 69.5C257.6 77.9 253.3 81.6 252.8 80.7C252.4 80.1 252 74.5 252 68.4C252 55.2 251 56.9 268.3 40.1L280 28.6V14.3V-1.2368e-06H252.7C237.6 -1.2368e-06 225 0.299999 224.7 0.699999Z" fill="white"/>
<path d="M10.3 20.5C5.5 22.6 3 27.3 3 34.3C3 41 4.8 44.9 9 47.4C11.3 48.7 14.8 49 28.2 49C42.8 49 44.8 48.8 47.8 47C52.1 44.3 54.4 39 53.7 32.7C53.2 27 50.7 23.2 45.9 20.8C41.4 18.5 15.4 18.3 10.3 20.5ZM41.8 30.2C42.5 30.9 43 32.9 43 34.7C43 39.2 40.6 40 27.7 40C16.4 40 13 38.7 13 34.5C13 29.8 15.1 29 28.4 29C36.5 29 41 29.4 41.8 30.2Z" fill="white"/>
<path d="M63 24V29H74H85V37V45H74H63V62.5V80H79.5H96V75.5V71H84.5H73V63V55H84H95V37V19H79H63V24Z" fill="white"/>
<path d="M105 50V81H110H115V50V19H110H105V50Z" fill="white"/>
<path d="M296.5 20.2C296.2 21 296.1 28.8 296.2 37.5L296.5 53.5L309.3 53.8L322 54.1V48C322 42.7 322.2 42 324 42C325.9 42 326 42.7 326 53V64H331H336V41.5V19H331H326V25.5C326 31.3 325.8 32 324 32C322.2 32 322 31.3 322 25.5V19H317H312V24C312 28.6 311.8 29 309.6 29C307.3 29 307.1 28.5 306.8 24.2L306.5 19.5L301.7 19.2C298.4 19 296.8 19.3 296.5 20.2ZM312 40.5C312 42.5 311.5 43 309.5 43C307.5 43 307 42.5 307 40.5C307 38.5 307.5 38 309.5 38C311.5 38 312 38.5 312 40.5Z" fill="white"/>
<path d="M339 45V71H324.5H310V65V59H305H300V70V81L324.8 80.8L349.5 80.5L349.8 49.7L350 19H344.5H339V45Z" fill="white"/>
<path d="M359 40V61L384.3 60.8L409.5 60.5L409.8 55.7L410.1 51H390.6H371V48V45H390.6H410.1L409.8 40.2L409.5 35.5L390.3 35.2L371 35V32V29H390.6H410.1L409.8 24.2L409.5 19.5L384.3 19.2L359 19V40Z" fill="white"/>
<path d="M0 61V66H11.5H23V73.5V81H28H33V73.5V66H44.5H56V61V56H28H0V61Z" fill="white"/>
<path d="M356 76V81L384.3 80.8L412.5 80.5L412.8 75.7L413.1 71H384.6H356V76Z" fill="white"/>
</svg>
